<?xml version="1.0" encoding="UTF-8" standalone="no"?>
<svg
   height="16"
   width="16"
   version="1.1"
   id="svg4"
   sodipodi:docname="AnimatedTabContainer.svg"
   inkscape:version="1.2.2 (b0a8486541, 2022-12-01)"
   xmlns:inkscape="http://www.inkscape.org/namespaces/inkscape"
   xmlns:sodipodi="http://sodipodi.sourceforge.net/DTD/sodipodi-0.dtd"
   xmlns="http://www.w3.org/2000/svg"
   xmlns:svg="http://www.w3.org/2000/svg">
  <defs
     id="defs8" />
  <sodipodi:namedview
     id="namedview6"
     pagecolor="#ffffff"
     bordercolor="#666666"
     borderopacity="1.0"
     inkscape:showpageshadow="2"
     inkscape:pageopacity="0.0"
     inkscape:pagecheckerboard="0"
     inkscape:deskcolor="#d1d1d1"
     showgrid="true"
     inkscape:zoom="25.809398"
     inkscape:cx="4.9981794"
     inkscape:cy="9.8994949"
     inkscape:window-width="1891"
     inkscape:window-height="1017"
     inkscape:window-x="1920"
     inkscape:window-y="0"
     inkscape:window-maximized="1"
     inkscape:current-layer="svg4">
    <inkscape:grid
       type="xygrid"
       id="grid3555"
       empspacing="8" />
  </sodipodi:namedview>
  <path
     d="M 12.142858,14 C 12.616245,14 13,13.552285 13,13 V 2 C 13,1.4477153 12.616245,1 12.142858,1 H 1.8571428 C 1.3837559,1 1,1.4477153 1,2 v 11 c 0,0.552285 0.3837559,1 0.8571428,1 z M 11,7 H 3 V 5 h 8 z M 11,4 H 3 V 2 h 8 z m 0,6 H 3 V 8 h 8 z m 0,3 H 3 v -2 h 8 z"
     fill="#8eef97"
     id="path2"
     style="fill:#caef7b;fill-opacity:1;stroke-width:0.92582"
     sodipodi:nodetypes="ssssssssscccccccccccccccccccc" />
  <path
     id="path2-5"
     style="fill:#caef7b;fill-opacity:1;stroke-width:0.92582"
     d="M 13.142578 1 C 13.615965 1 14 1.4477159 14 2 L 14 13 C 14 13.552284 13.615965 14 13.142578 14 L 14.142578 14 C 14.615965 14 15 13.552284 15 13 L 15 2 C 15 1.4477159 14.615965 1 14.142578 1 L 13.142578 1 z M 3.3769531 1.1699219 C 3.3313529 1.2058633 3.2907312 1.2477277 3.2519531 1.2929688 C 3.2907312 1.2477277 3.3313529 1.2058633 3.3769531 1.1699219 z M 3.0664062 1.6113281 C 3.0447194 1.6711472 3.028996 1.7337306 3.0175781 1.7988281 C 3.028996 1.7337306 3.0447194 1.6711472 3.0664062 1.6113281 z M 3.0175781 13.201172 C 3.028996 13.266269 3.0447194 13.328853 3.0664062 13.388672 C 3.0447194 13.328853 3.028996 13.266269 3.0175781 13.201172 z M 3.2519531 13.707031 C 3.2907312 13.752272 3.3313529 13.794137 3.3769531 13.830078 C 3.3313529 13.794137 3.2907312 13.752272 3.2519531 13.707031 z " />
</svg>
