<?xml version="1.0" encoding="UTF-8" standalone="no"?>
<svg
   height="16"
   viewBox="0 0 16 16"
   width="16"
   version="1.1"
   id="svg689"
   sodipodi:docname="AutoScroll.svg"
   inkscape:version="1.2.2 (b0a8486541, 2022-12-01)"
   xmlns:inkscape="http://www.inkscape.org/namespaces/inkscape"
   xmlns:sodipodi="http://sodipodi.sourceforge.net/DTD/sodipodi-0.dtd"
   xmlns="http://www.w3.org/2000/svg"
   xmlns:svg="http://www.w3.org/2000/svg">
  <defs
     id="defs693" />
  <sodipodi:namedview
     id="namedview691"
     pagecolor="#ffffff"
     bordercolor="#666666"
     borderopacity="1.0"
     inkscape:showpageshadow="2"
     inkscape:pageopacity="0.0"
     inkscape:pagecheckerboard="0"
     inkscape:deskcolor="#d1d1d1"
     showgrid="true"
     inkscape:zoom="37"
     inkscape:cx="8.0135135"
     inkscape:cy="8.0135135"
     inkscape:window-width="1891"
     inkscape:window-height="1017"
     inkscape:window-x="0"
     inkscape:window-y="0"
     inkscape:window-maximized="1"
     inkscape:current-layer="svg689">
    <inkscape:grid
       type="xygrid"
       id="grid295"
       empspacing="16"
       spacingx="0.5"
       spacingy="0.5" />
  </sodipodi:namedview>
  <path
     d="m 9,5.5 2,5 H 10 L 9,9.5 H 7 l -1,1 H 5 l 2,-5 c 0.4671754,-1.0653175 1,-1 1,-1 0,0 0.5745256,0.059885 1,1 z m 0,3 H 7 l 1,-2 z M 13,3 C 13,1.8954305 12.104569,1 11,1 H 5 C 3.8954305,1 3,1.8954305 3,3 v 10 c 0,1.104569 0.8954305,2 2,2 h 6 c 1.104569,0 2,-0.895431 2,-2 z M 8,2 C 8.2016148,1.99756 8.387259,2.056119 8.555,2.168 L 11,3 c 1.109563,0.7399537 0.109563,1.7399537 -1,1 L 8,3 6,4 C 4.8899246,4.7403793 3.8899246,3.7403793 5,3 L 7.445,2.168 C 7.6059396,2.0606562 7.8065602,2.0022985 8,2 Z m -2,10 2,1 2,-1 c 1.109379,-0.74023 2.109379,0.25977 1,1 l -2.445,0.832 c -0.3360369,0.2242 -0.7739631,0.2242 -1.11,0 L 5,13 C 4.1411829,11.984187 5.1521114,11.276313 6,12 Z"
     fill="#8eef97"
     id="use293"
     style="display:inline;fill:#caef7b;fill-opacity:1"
     sodipodi:nodetypes="cccccccccccccccssssssccccccccccccccccccc" />
</svg>
