<?xml version="1.0" encoding="UTF-8" standalone="no"?>
<svg
   height="16"
   viewBox="0 0 16 16"
   width="16"
   version="1.1"
   id="svg133"
   sodipodi:docname="GridContainer.svg"
   inkscape:version="1.2.2 (b0a8486541, 2022-12-01)"
   xmlns:inkscape="http://www.inkscape.org/namespaces/inkscape"
   xmlns:sodipodi="http://sodipodi.sourceforge.net/DTD/sodipodi-0.dtd"
   xmlns="http://www.w3.org/2000/svg"
   xmlns:svg="http://www.w3.org/2000/svg">
  <defs
     id="defs137" />
  <sodipodi:namedview
     id="namedview135"
     pagecolor="#ffffff"
     bordercolor="#666666"
     borderopacity="1.0"
     inkscape:showpageshadow="2"
     inkscape:pageopacity="0.0"
     inkscape:pagecheckerboard="0"
     inkscape:deskcolor="#d1d1d1"
     showgrid="true"
     inkscape:zoom="36.5"
     inkscape:cx="7.4246575"
     inkscape:cy="8.0136986"
     inkscape:window-width="1891"
     inkscape:window-height="1017"
     inkscape:window-x="1920"
     inkscape:window-y="0"
     inkscape:window-maximized="1"
     inkscape:current-layer="svg133">
    <inkscape:grid
       type="xygrid"
       id="grid682" />
  </sodipodi:namedview>
  <path
     d="M 3,1 C 1.8954305,1 1,1.8954305 1,3 v 10 c 0,1.104569 0.8954305,2 2,2 h 10 c 1.104569,0 2,-0.895431 2,-2 V 3 C 15,1.8954305 14.104569,1 13,1 Z M 2.75,2 h 2.5 C 5.75,2 6,2.5 6,3 6,3.5 5.75,4 5.25,4 H 2.75 C 2.25,4 2,3.5 2,3 2,2.5 2.25,2 2.75,2 Z m 5,0 h 1.5 C 9.75,2 10,2.5 10,3 10,3.5 9.75,4 9.25,4 H 7.75 C 7.25,4 7,3.5 7,3 7,2.5 7.25,2 7.75,2 Z M 3,8 h 3 c 1,0 1,1 1,1 v 2 c 0,0 0,1 -1,1 H 3 C 1.9489044,11.941672 2,11 2,11 V 9 C 2,9 2,8 3,8 Z m 5,5 h 5 c 1,0 1,1 0,1 H 8 C 7,14 7,13 8,13 Z m -5,0 h 2 c 1,0 1,1 0,1 H 3 C 2,14 2,13 3,13 Z M 11.75,2 h 1.500001 c 0.5,0 0.75,0.5 0.75,1 0,0.5 -0.25,1 -0.75,1 H 11.75 C 11.25,4 11,3.5 11,3 11,2.5 11.25,2 11.75,2 Z m -9,3 h 0.5 C 3.75,5 4,5.5 4,6 4,6.5 3.75,7 3.25,7 H 2.75 C 2.25,7 2,6.5 2,6 2,5.5 2.25,5 2.75,5 Z m 3,0 h 2.5 C 8.75,5 9,5.5 9,6 9,6.5 8.75,7 8.25,7 H 5.75 C 5.25,7 5,6.5 5,6 5,5.5 5.25,5 5.75,5 Z m 5,0 h 2.5 C 13.75,5 14,5.5 14,6 14,6.5 13.75,7 13.25,7 h -2.5 C 10.25,7 10,6.5 10,6 10,5.5 10.25,5 10.75,5 Z M 9,8 h 4 c 1,0 1,1 1,1 v 2 c 0,0 0,1 -1,1 H 9 C 7.9489044,11.94167 8,11 8,11 V 9 C 8,9 8,8 9,8 Z"
     fill="#8eef97"
     id="path131"
     sodipodi:nodetypes="sssssssssccsccscccsccsccccccccccccccccccccssssssssssssssssssssssssssssssccscccs"
     style="fill:#caef7b;fill-opacity:1" />
</svg>
