<?xml version="1.0" encoding="UTF-8" standalone="no"?>
<svg
   height="16"
   width="16"
   version="1.1"
   id="svg4"
   sodipodi:docname="VAnimatedBar.svg"
   inkscape:version="1.2.2 (b0a8486541, 2022-12-01)"
   xmlns:inkscape="http://www.inkscape.org/namespaces/inkscape"
   xmlns:sodipodi="http://sodipodi.sourceforge.net/DTD/sodipodi-0.dtd"
   xmlns="http://www.w3.org/2000/svg"
   xmlns:svg="http://www.w3.org/2000/svg">
  <defs
     id="defs8" />
  <sodipodi:namedview
     id="namedview6"
     pagecolor="#ffffff"
     bordercolor="#666666"
     borderopacity="1.0"
     inkscape:showpageshadow="2"
     inkscape:pageopacity="0.0"
     inkscape:pagecheckerboard="0"
     inkscape:deskcolor="#d1d1d1"
     showgrid="true"
     inkscape:zoom="36.5"
     inkscape:cx="4.4109589"
     inkscape:cy="9.2465753"
     inkscape:window-width="1891"
     inkscape:window-height="1017"
     inkscape:window-x="1920"
     inkscape:window-y="0"
     inkscape:window-maximized="1"
     inkscape:current-layer="svg4">
    <inkscape:grid
       type="xygrid"
       id="grid3555"
       empspacing="8" />
  </sodipodi:namedview>
  <g
     id="g3119"
     transform="rotate(90,7.9996987,8)">
    <path
       d="M 15,10 C 15,9 14,9 14,8 V 2 C 14,1.4477153 13.616245,1 13.142858,1 H 2.8571428 C 2.3837559,1 2,1.4477153 2,2 V 8 C 2,9 0.97097579,9.3368823 1,10 Z M 5.9996987,7.9996987 4,8 V 3 l 1.9996987,-3.013e-4 z m 6.0000003,0 H 9.9996987 L 10,3 h 2 z m -5.0000003,0 v -5 h 2 v 5 z"
       fill="#8eef97"
       id="path2"
       style="fill:#caef7b;fill-opacity:1;stroke-width:0.92582"
       sodipodi:nodetypes="cssssssccccccccccccccccc" />
    <path
       d="M 12,15 V 11 H 7 v 4 z M 11.166668,14 H 7.833332 L 9.5,12 Z"
       style="fill:#caef7b;fill-opacity:1;stroke-width:0.91287"
       id="path4703" />
    <path
       d="M 3,15 V 11 H 1 v 4 z"
       style="fill:#caef7b;fill-opacity:1;stroke-width:0.57735"
       id="path4703-3"
       sodipodi:nodetypes="ccccc" />
    <path
       d="M 6,15 V 11 H 4 v 4 z"
       style="fill:#caef7b;fill-opacity:1;stroke-width:0.57735"
       id="path4703-3-6"
       sodipodi:nodetypes="ccccc" />
    <path
       d="m 15,15 v -4 h -2 v 4 z"
       style="fill:#caef7b;fill-opacity:1;stroke-width:0.57735"
       id="path4703-3-7"
       sodipodi:nodetypes="ccccc" />
  </g>
</svg>
