<?xml version="1.0" encoding="UTF-8" standalone="no"?>
<svg
   height="16"
   viewBox="0 0 16 16"
   width="16"
   version="1.1"
   id="svg689"
   sodipodi:docname="AutoScroll.svg"
   inkscape:version="1.2.2 (b0a8486541, 2022-12-01)"
   xmlns:inkscape="http://www.inkscape.org/namespaces/inkscape"
   xmlns:sodipodi="http://sodipodi.sourceforge.net/DTD/sodipodi-0.dtd"
   xmlns="http://www.w3.org/2000/svg"
   xmlns:svg="http://www.w3.org/2000/svg">
  <defs
     id="defs693" />
  <sodipodi:namedview
     id="namedview691"
     pagecolor="#ffffff"
     bordercolor="#666666"
     borderopacity="1.0"
     inkscape:showpageshadow="2"
     inkscape:pageopacity="0.0"
     inkscape:pagecheckerboard="0"
     inkscape:deskcolor="#d1d1d1"
     showgrid="true"
     inkscape:zoom="37"
     inkscape:cx="8.0135135"
     inkscape:cy="8.0135135"
     inkscape:window-width="1891"
     inkscape:window-height="1017"
     inkscape:window-x="0"
     inkscape:window-y="0"
     inkscape:window-maximized="1"
     inkscape:current-layer="svg689">
    <inkscape:grid
       type="xygrid"
       id="grid295"
       empspacing="16"
       spacingx="0.5"
       spacingy="0.5" />
    <inkscape:grid
       type="xygrid"
       id="grid10424"
       empspacing="8"
       color="#1cca17"
       opacity="0.5254902" />
  </sodipodi:namedview>
  <path
     d="m 9,4 3,8.5 H 10 L 9.5,11 h -3 L 6,12.5 H 4 L 7,4 C 7.5,3.1037441 8,3 8,3 8,3 8.5,3 9,4 Z M 9,9.5 H 7 l 1,-4 z M 13,3 C 13,1.8954305 12.104569,1 11,1 H 5 C 3.8954305,1 3,1.8954305 3,3 v 10 c 0,1.104569 0.8954305,2 2,2 h 6 c 1.104569,0 2,-0.895431 2,-2 z"
     fill="#8eef97"
     id="use293"
     style="display:inline;fill:#caef7b;fill-opacity:1"
     sodipodi:nodetypes="cccccccccccccccsssssscc" />
</svg>
