<?xml version="1.0" encoding="UTF-8" standalone="no"?>
<svg
   width="16"
   height="16"
   viewBox="0 0 16 16"
   version="1.1"
   id="svg4"
   sodipodi:docname="DictionaryNode.svg"
   inkscape:version="1.2.2 (b0a8486541, 2022-12-01)"
   xmlns:inkscape="http://www.inkscape.org/namespaces/inkscape"
   xmlns:sodipodi="http://sodipodi.sourceforge.net/DTD/sodipodi-0.dtd"
   xmlns="http://www.w3.org/2000/svg"
   xmlns:svg="http://www.w3.org/2000/svg">
  <defs
     id="defs8" />
  <sodipodi:namedview
     id="namedview6"
     pagecolor="#ffffff"
     bordercolor="#666666"
     borderopacity="1.0"
     inkscape:showpageshadow="2"
     inkscape:pageopacity="0.0"
     inkscape:pagecheckerboard="0"
     inkscape:deskcolor="#d1d1d1"
     showgrid="true"
     inkscape:zoom="37"
     inkscape:cx="7.0405405"
     inkscape:cy="9.9324324"
     inkscape:window-width="1890"
     inkscape:window-height="1031"
     inkscape:window-x="1536"
     inkscape:window-y="0"
     inkscape:window-maximized="1"
     inkscape:current-layer="svg4">
    <inkscape:grid
       type="xygrid"
       id="grid291"
       empspacing="8" />
  </sodipodi:namedview>
  <path
     id="rect2608"
     style="fill:#d8c393;fill-opacity:1;fill-rule:evenodd;stroke:#000000;stroke-opacity:0"
     d="M 3 1 L 3 11 C 8.3976992 11.003953 7.000001 12 8 12 C 9.0478595 11.995748 8.000005 11 13 11 L 13 1 C 8.000005 1 8 2 8 2 C 8 2 7.999995 1 3 1 z M 1 2 L 1 13 C 3.999991 13 5.4251678 13.636422 6.4355469 14.013672 C 7.4971349 14.401777 8.5852326 14.283346 9.6835938 14 C 10.704596 13.73661 12.661338 13.045015 14.568359 13 L 15 13 L 15 2 L 14 2 L 14 12 C 8.0430723 12.02686 9.0478585 12.995748 8 13 C 7.000002 13 7.975138 12.014496 2 12 L 2 2 L 1 2 z " />
</svg>
