<?xml version="1.0" encoding="UTF-8" standalone="no"?>
<svg
   height="16"
   viewBox="0 0 16 16"
   width="16"
   version="1.1"
   id="svg4"
   sodipodi:docname="ExpandableButton.svg"
   inkscape:version="1.2.2 (b0a8486541, 2022-12-01)"
   xmlns:inkscape="http://www.inkscape.org/namespaces/inkscape"
   xmlns:sodipodi="http://sodipodi.sourceforge.net/DTD/sodipodi-0.dtd"
   xmlns="http://www.w3.org/2000/svg"
   xmlns:svg="http://www.w3.org/2000/svg">
  <defs
     id="defs8" />
  <sodipodi:namedview
     id="namedview6"
     pagecolor="#ffffff"
     bordercolor="#666666"
     borderopacity="1.0"
     inkscape:showpageshadow="2"
     inkscape:pageopacity="0.0"
     inkscape:pagecheckerboard="0"
     inkscape:deskcolor="#d1d1d1"
     showgrid="true"
     inkscape:zoom="52.325902"
     inkscape:cx="7.7303971"
     inkscape:cy="8.112617"
     inkscape:window-width="1890"
     inkscape:window-height="1031"
     inkscape:window-x="1536"
     inkscape:window-y="0"
     inkscape:window-maximized="1"
     inkscape:current-layer="svg4">
    <inkscape:grid
       type="xygrid"
       id="grid291"
       empspacing="8" />
  </sodipodi:namedview>
  <path
     d="M 5.5,9 C 4.6715729,9 4,9.6715729 4,10.5 V 12 l 2,-1 3,-1 v 1 -1 H 7 v 0 l -1,1 v 0 L 4,12 H 2 v 2 H 14 V 12 H 12 V 10.5 C 12,9.6715729 11.328427,9 10.5,9 Z"
     fill="#8eef97"
     id="path2"
     style="display:inline;fill:#caef7b;fill-opacity:1"
     sodipodi:nodetypes="sscccccccccccccccsss" />
  <path
     d="M 4.9388193,7.6016011 9.3841001,5.0352035 9.2708855,6.76911 11.266953,6.8983983 12.733048,3.1016017 c 0.366023,-1.3660254 -0.01949,-1.4066736 -1,-1.7320512 L 7.711952,0.74095762 6.8258855,2.5342458 8.3841002,3.3031525 3.9388192,5.8695505 Z"
     fill="#8eef97"
     id="path1335"
     style="fill:#caef7b;fill-opacity:1"
     sodipodi:nodetypes="ccccccccccc" />
</svg>
