<?xml version="1.0" encoding="UTF-8" standalone="no"?>
<svg
   height="16"
   viewBox="0 0 16 16"
   width="16"
   version="1.1"
   id="svg1177"
   sodipodi:docname="HScrollBar.svg"
   inkscape:version="1.2.2 (b0a8486541, 2022-12-01)"
   xmlns:inkscape="http://www.inkscape.org/namespaces/inkscape"
   xmlns:sodipodi="http://sodipodi.sourceforge.net/DTD/sodipodi-0.dtd"
   xmlns="http://www.w3.org/2000/svg"
   xmlns:svg="http://www.w3.org/2000/svg">
  <defs
     id="defs1181" />
  <sodipodi:namedview
     id="namedview1179"
     pagecolor="#ffffff"
     bordercolor="#666666"
     borderopacity="1.0"
     inkscape:showpageshadow="2"
     inkscape:pageopacity="0.0"
     inkscape:pagecheckerboard="0"
     inkscape:deskcolor="#d1d1d1"
     showgrid="false"
     inkscape:zoom="37"
     inkscape:cx="8.0135135"
     inkscape:cy="8.0135135"
     inkscape:window-width="1890"
     inkscape:window-height="1031"
     inkscape:window-x="1536"
     inkscape:window-y="0"
     inkscape:window-maximized="1"
     inkscape:current-layer="svg1177" />
  <path
     d="M15 5a2 2 0 0 0-2-2H3a2 2 0 0 0-2 2v6a2 2 0 0 0 2 2h10a2 2 0 0 0 2-2zm-1 2.988a1 1 0 0 1-.168.567l-2 3a1 1 0 1 1-1.664-1.11L11.797 8l-1.629-2.445a1 1 0 1 1 1.664-1.11l2 3a1 1 0 0 1 .168.543zM6.008 4.99a1 1 0 0 1-.176.565L4.202 8l1.63 2.445a1 1 0 1 1-1.664 1.11l-2-3a1 1 0 0 1 0-1.11l2-3a1 1 0 0 1 1.84.545z"
     fill="#8eef97"
     id="path1175"
     style="fill:#caef7b;fill-opacity:1" />
</svg>
