<?xml version="1.0" encoding="UTF-8" standalone="no"?>
<svg
   height="16"
   viewBox="0 0 16 16"
   width="16"
   version="1.1"
   id="svg689"
   sodipodi:docname="VScrollBar.svg"
   inkscape:version="1.2.2 (b0a8486541, 2022-12-01)"
   xmlns:inkscape="http://www.inkscape.org/namespaces/inkscape"
   xmlns:sodipodi="http://sodipodi.sourceforge.net/DTD/sodipodi-0.dtd"
   xmlns="http://www.w3.org/2000/svg"
   xmlns:svg="http://www.w3.org/2000/svg">
  <defs
     id="defs693" />
  <sodipodi:namedview
     id="namedview691"
     pagecolor="#ffffff"
     bordercolor="#666666"
     borderopacity="1.0"
     inkscape:showpageshadow="2"
     inkscape:pageopacity="0.0"
     inkscape:pagecheckerboard="0"
     inkscape:deskcolor="#d1d1d1"
     showgrid="false"
     inkscape:zoom="37"
     inkscape:cx="8.0135135"
     inkscape:cy="8.0135135"
     inkscape:window-width="1890"
     inkscape:window-height="1031"
     inkscape:window-x="1536"
     inkscape:window-y="0"
     inkscape:window-maximized="1"
     inkscape:current-layer="svg689" />
  <path
     d="M5 1a2 2 0 0 0-2 2v10a2 2 0 0 0 2 2h6a2 2 0 0 0 2-2V3a2 2 0 0 0-2-2zm2.988 1a1 1 0 0 1 .567.168l3 2a1 1 0 1 1-1.11 1.664L8 4.203l-2.445 1.63a1 1 0 1 1-1.11-1.665l3-2A1 1 0 0 1 7.988 2zM4.99 9.992a1 1 0 0 1 .565.176L8 11.798l2.445-1.63a1 1 0 1 1 1.11 1.664l-3 2a1 1 0 0 1-1.11 0l-3-2a1 1 0 0 1 .545-1.84z"
     fill="#8eef97"
     id="path687"
     style="fill:#caef7b;fill-opacity:1" />
</svg>
